<svg xmlns="http://www.w3.org/2000/svg" xmlns:xlink="http://www.w3.org/1999/xlink" width="256" zoomAndPan="magnify" viewBox="0 0 192 191.999996" height="256" preserveAspectRatio="xMidYMid meet" version="1.0"><defs><g/><clipPath id="041df37764"><path d="M 32.125 69.796875 L 161 69.796875 L 161 84 L 32.125 84 Z M 32.125 69.796875 " clip-rule="nonzero"/></clipPath><clipPath id="fb15addcbc"><path d="M 32.125 112 L 161 112 L 161 126 L 32.125 126 Z M 32.125 112 " clip-rule="nonzero"/></clipPath><clipPath id="a778ec7366"><path d="M 0.121094 2 L 9 2 L 9 12 L 0.121094 12 Z M 0.121094 2 " clip-rule="nonzero"/></clipPath><clipPath id="6e8196f0b9"><rect x="0" width="154" y="0" height="22"/></clipPath></defs><rect x="-19.2" width="230.4" fill="#ffffff" y="-19.2" height="230.399995" fill-opacity="1"/><rect x="-19.2" width="230.4" fill="#f2f2f2" y="-19.2" height="230.399995" fill-opacity="1"/><g clip-path="url(#041df37764)"><path fill="#0088cc" d="M 33.800781 71.273438 L 159.261719 71.273438 L 159.261719 83.355469 L 160.738281 83.355469 L 160.738281 69.796875 L 32.320312 69.796875 L 32.320312 83.355469 L 33.800781 83.355469 Z M 33.800781 71.273438 " fill-opacity="1" fill-rule="nonzero"/></g><g clip-path="url(#fb15addcbc)"><path fill="#0088cc" d="M 159.261719 124.191406 L 33.800781 124.191406 L 33.800781 112.847656 L 32.320312 112.847656 L 32.320312 125.671875 L 160.738281 125.671875 L 160.738281 112.847656 L 159.261719 112.847656 Z M 159.261719 124.191406 " fill-opacity="1" fill-rule="nonzero"/></g><g transform="matrix(1, 0, 0, 1, 21, 87)"><g clip-path="url(#6e8196f0b9)"><g clip-path="url(#a778ec7366)"><g fill="#666666" fill-opacity="1"><g transform="translate(0.22464, 11.918393)"><g><path d="M 1.046875 -1.796875 L 0.59375 -2.5 L 5.71875 -9.796875 L 6.875 -9.796875 L 6.875 -3.09375 L 8.453125 -3.09375 L 8.453125 -1.796875 L 6.875 -1.796875 L 6.875 0 L 5.421875 0 L 5.421875 -1.796875 Z M 2.671875 -3.09375 L 5.390625 -3.09375 L 5.390625 -7.03125 Z M 2.671875 -3.09375 "/></g></g></g></g><g fill="#666666" fill-opacity="1"><g transform="translate(12.140932, 11.918393)"><g><path d="M 2.71875 -8.5 L 0.0625 -8.5 L 0.0625 -9.796875 L 6.828125 -9.796875 L 6.828125 -8.5 L 4.15625 -8.5 L 4.15625 0 L 2.71875 0 Z M 2.71875 -8.5 "/></g></g></g><g fill="#666666" fill-opacity="1"><g transform="translate(22.398342, 11.918393)"><g><path d="M 7.71875 -9.796875 L 9.15625 -9.796875 L 9.15625 0 L 7.71875 0 L 7.71875 -4.5 L 2.21875 -4.5 L 2.21875 0 L 0.78125 0 L 0.78125 -9.796875 L 2.21875 -9.796875 L 2.21875 -5.828125 L 7.71875 -5.828125 Z M 7.71875 -9.796875 "/></g></g></g><g fill="#666666" fill-opacity="1"><g transform="translate(35.434378, 11.918393)"><g/></g></g><g fill="#666666" fill-opacity="1"><g transform="translate(42.08372, 11.918393)"><g><path d="M 1.734375 0 L 0.15625 0 L 4.234375 -9.796875 L 5.828125 -9.796875 L 9.90625 0 L 8.34375 0 L 7.046875 -3.0625 L 3 -3.0625 Z M 3.546875 -4.390625 L 6.5 -4.390625 L 5.03125 -7.9375 Z M 3.546875 -4.390625 "/></g></g></g><g fill="#666666" fill-opacity="1"><g transform="translate(55.244168, 11.918393)"><g><path d="M 9.21875 -9.796875 L 9.21875 0 L 7.75 0 L 2.28125 -7.515625 L 2.28125 0 L 0.78125 0 L 0.78125 -9.796875 L 2.296875 -9.796875 L 7.765625 -2.234375 L 7.765625 -9.796875 Z M 9.21875 -9.796875 "/></g></g></g><g fill="#666666" fill-opacity="1"><g transform="translate(68.307849, 11.918393)"><g><path d="M 0.828125 0 L 0.828125 -9.796875 L 4.3125 -9.796875 C 5.019531 -9.796875 5.644531 -9.664062 6.1875 -9.40625 C 6.738281 -9.15625 7.195312 -8.804688 7.5625 -8.359375 C 7.925781 -7.921875 8.203125 -7.398438 8.390625 -6.796875 C 8.578125 -6.203125 8.671875 -5.566406 8.671875 -4.890625 C 8.671875 -4.210938 8.570312 -3.578125 8.375 -2.984375 C 8.175781 -2.390625 7.898438 -1.867188 7.546875 -1.421875 C 7.203125 -0.984375 6.789062 -0.632812 6.3125 -0.375 C 5.832031 -0.125 5.3125 0 4.75 0 Z M 4.265625 -1.34375 C 4.785156 -1.34375 5.226562 -1.4375 5.59375 -1.625 C 5.96875 -1.820312 6.273438 -2.082031 6.515625 -2.40625 C 6.753906 -2.726562 6.925781 -3.101562 7.03125 -3.53125 C 7.144531 -3.96875 7.203125 -4.421875 7.203125 -4.890625 C 7.203125 -5.359375 7.144531 -5.8125 7.03125 -6.25 C 6.925781 -6.6875 6.753906 -7.070312 6.515625 -7.40625 C 6.285156 -7.738281 5.984375 -8.003906 5.609375 -8.203125 C 5.234375 -8.398438 4.785156 -8.5 4.265625 -8.5 L 2.28125 -8.5 L 2.28125 -1.34375 Z M 4.265625 -1.34375 "/></g></g></g><g fill="#666666" fill-opacity="1"><g transform="translate(80.721802, 11.918393)"><g/></g></g><g fill="#666666" fill-opacity="1"><g transform="translate(87.371143, 11.918393)"><g><path d="M 7.71875 -2.734375 C 7.71875 -2.359375 7.644531 -2.003906 7.5 -1.671875 C 7.351562 -1.335938 7.15625 -1.046875 6.90625 -0.796875 C 6.664062 -0.546875 6.375 -0.347656 6.03125 -0.203125 C 5.695312 -0.0664062 5.34375 0 4.96875 0 L 0.78125 0 L 0.78125 -9.796875 L 4.609375 -9.796875 C 4.941406 -9.796875 5.253906 -9.734375 5.546875 -9.609375 C 5.835938 -9.484375 6.09375 -9.304688 6.3125 -9.078125 C 6.539062 -8.859375 6.71875 -8.597656 6.84375 -8.296875 C 6.96875 -8.003906 7.03125 -7.6875 7.03125 -7.34375 C 7.03125 -6.914062 6.960938 -6.53125 6.828125 -6.1875 C 6.691406 -5.84375 6.46875 -5.550781 6.15625 -5.3125 C 6.675781 -5.113281 7.066406 -4.78125 7.328125 -4.3125 C 7.585938 -3.851562 7.71875 -3.328125 7.71875 -2.734375 Z M 2.21875 -5.828125 C 2.582031 -5.828125 2.921875 -5.828125 3.234375 -5.828125 L 4.625 -5.828125 C 4.96875 -5.828125 5.257812 -5.957031 5.5 -6.21875 C 5.738281 -6.476562 5.859375 -6.789062 5.859375 -7.15625 C 5.859375 -7.539062 5.738281 -7.859375 5.5 -8.109375 C 5.257812 -8.367188 4.96875 -8.5 4.625 -8.5 L 2.21875 -8.5 Z M 2.21875 -1.34375 C 2.28125 -1.332031 2.421875 -1.328125 2.640625 -1.328125 L 4.96875 -1.328125 C 5.15625 -1.328125 5.332031 -1.367188 5.5 -1.453125 C 5.675781 -1.535156 5.828125 -1.644531 5.953125 -1.78125 C 6.085938 -1.925781 6.191406 -2.09375 6.265625 -2.28125 C 6.335938 -2.476562 6.375 -2.691406 6.375 -2.921875 C 6.375 -3.140625 6.335938 -3.34375 6.265625 -3.53125 C 6.191406 -3.71875 6.085938 -3.882812 5.953125 -4.03125 C 5.828125 -4.175781 5.675781 -4.289062 5.5 -4.375 C 5.332031 -4.457031 5.15625 -4.5 4.96875 -4.5 L 2.21875 -4.5 Z M 2.21875 -1.34375 "/></g></g></g><g fill="#666666" fill-opacity="1"><g transform="translate(98.70683, 11.918393)"><g><path d="M 1.734375 0 L 0.15625 0 L 4.234375 -9.796875 L 5.828125 -9.796875 L 9.90625 0 L 8.34375 0 L 7.046875 -3.0625 L 3 -3.0625 Z M 3.546875 -4.390625 L 6.5 -4.390625 L 5.03125 -7.9375 Z M 3.546875 -4.390625 "/></g></g></g><g fill="#666666" fill-opacity="1"><g transform="translate(111.867267, 11.918393)"><g><path d="M 3.421875 -8.609375 L 3.421875 -1.1875 L 4.140625 -1.1875 L 4.140625 0 L 1.265625 0 L 1.265625 -1.1875 L 1.984375 -1.1875 L 1.984375 -8.609375 L 1.265625 -8.609375 L 1.265625 -9.796875 L 4.140625 -9.796875 L 4.140625 -8.609375 Z M 3.421875 -8.609375 "/></g></g></g><g fill="#666666" fill-opacity="1"><g transform="translate(120.341388, 11.918393)"><g><path d="M 0.8125 0 L 0.8125 -9.796875 L 2.265625 -9.796875 L 2.265625 -1.34375 L 6.796875 -1.34375 L 6.796875 0 Z M 0.8125 0 "/></g></g></g><g fill="#666666" fill-opacity="1"><g transform="translate(130.474379, 11.918393)"><g><path d="M 6.765625 -9.796875 L 6.765625 -8.5 L 2.21875 -8.5 L 2.21875 -5.828125 L 6.265625 -5.828125 L 6.265625 -4.5 L 2.21875 -4.5 L 2.21875 -1.34375 L 6.765625 -1.34375 L 6.765625 0 L 0.78125 0 L 0.78125 -9.796875 Z M 6.765625 -9.796875 "/></g></g></g><g fill="#666666" fill-opacity="1"><g transform="translate(141.105031, 11.918393)"><g><path d="M 3.578125 -4.59375 L 0.125 -9.796875 L 1.859375 -9.796875 L 4.296875 -6.125 L 6.75 -9.796875 L 8.484375 -9.796875 L 5.03125 -4.59375 L 5.03125 0 L 3.578125 0 Z M 3.578125 -4.59375 "/></g></g></g><g fill="#666666" fill-opacity="1"><g transform="translate(2.86332, 20.404795)"><g><path d="M 0.9375 0 L 0.484375 0 L 0.484375 -3.296875 L 0.9375 -3.296875 Z M 0.9375 0 "/></g></g></g><g fill="#666666" fill-opacity="1"><g transform="translate(5.79862, 20.404795)"><g><path d="M 0.625 -3.296875 C 0.664062 -3.296875 0.695312 -3.289062 0.71875 -3.28125 C 0.738281 -3.269531 0.757812 -3.253906 0.78125 -3.234375 L 2.703125 -0.734375 C 2.691406 -0.773438 2.6875 -0.8125 2.6875 -0.84375 C 2.6875 -0.882812 2.6875 -0.925781 2.6875 -0.96875 L 2.6875 -3.296875 L 3.078125 -3.296875 L 3.078125 0 L 2.859375 0 C 2.816406 0 2.785156 -0.00390625 2.765625 -0.015625 C 2.742188 -0.0234375 2.71875 -0.046875 2.6875 -0.078125 L 0.78125 -2.5625 C 0.78125 -2.53125 0.78125 -2.492188 0.78125 -2.453125 C 0.789062 -2.421875 0.796875 -2.390625 0.796875 -2.359375 L 0.796875 0 L 0.40625 0 L 0.40625 -3.296875 Z M 0.625 -3.296875 "/></g></g></g><g fill="#666666" fill-opacity="1"><g transform="translate(10.802931, 20.404795)"><g><path d="M 2.4375 -3.296875 L 2.4375 -2.9375 L 0.84375 -2.9375 L 0.84375 -1.78125 L 2.203125 -1.78125 L 2.203125 -1.421875 L 0.84375 -1.421875 L 0.84375 0 L 0.40625 0 L 0.40625 -3.296875 Z M 2.4375 -3.296875 "/></g></g></g><g fill="#666666" fill-opacity="1"><g transform="translate(14.931715, 20.404795)"><g><path d="M 3.46875 -1.65625 C 3.46875 -1.40625 3.425781 -1.175781 3.34375 -0.96875 C 3.269531 -0.757812 3.160156 -0.582031 3.015625 -0.4375 C 2.878906 -0.289062 2.707031 -0.175781 2.5 -0.09375 C 2.300781 -0.0078125 2.082031 0.03125 1.84375 0.03125 C 1.59375 0.03125 1.367188 -0.0078125 1.171875 -0.09375 C 0.972656 -0.175781 0.800781 -0.289062 0.65625 -0.4375 C 0.519531 -0.582031 0.410156 -0.757812 0.328125 -0.96875 C 0.253906 -1.175781 0.21875 -1.40625 0.21875 -1.65625 C 0.21875 -1.894531 0.253906 -2.117188 0.328125 -2.328125 C 0.410156 -2.535156 0.519531 -2.710938 0.65625 -2.859375 C 0.800781 -3.015625 0.972656 -3.132812 1.171875 -3.21875 C 1.367188 -3.300781 1.59375 -3.34375 1.84375 -3.34375 C 2.082031 -3.34375 2.300781 -3.300781 2.5 -3.21875 C 2.707031 -3.132812 2.878906 -3.015625 3.015625 -2.859375 C 3.160156 -2.710938 3.269531 -2.535156 3.34375 -2.328125 C 3.425781 -2.117188 3.46875 -1.894531 3.46875 -1.65625 Z M 3.015625 -1.65625 C 3.015625 -1.851562 2.984375 -2.03125 2.921875 -2.1875 C 2.867188 -2.351562 2.789062 -2.488281 2.6875 -2.59375 C 2.59375 -2.707031 2.472656 -2.796875 2.328125 -2.859375 C 2.179688 -2.921875 2.019531 -2.953125 1.84375 -2.953125 C 1.664062 -2.953125 1.503906 -2.921875 1.359375 -2.859375 C 1.210938 -2.796875 1.085938 -2.707031 0.984375 -2.59375 C 0.878906 -2.488281 0.800781 -2.351562 0.75 -2.1875 C 0.695312 -2.03125 0.671875 -1.851562 0.671875 -1.65625 C 0.671875 -1.445312 0.695312 -1.257812 0.75 -1.09375 C 0.800781 -0.9375 0.878906 -0.800781 0.984375 -0.6875 C 1.085938 -0.582031 1.210938 -0.5 1.359375 -0.4375 C 1.503906 -0.382812 1.664062 -0.359375 1.84375 -0.359375 C 2.019531 -0.359375 2.179688 -0.382812 2.328125 -0.4375 C 2.472656 -0.5 2.59375 -0.582031 2.6875 -0.6875 C 2.789062 -0.800781 2.867188 -0.9375 2.921875 -1.09375 C 2.984375 -1.257812 3.015625 -1.445312 3.015625 -1.65625 Z M 3.015625 -1.65625 "/></g></g></g><g fill="#666666" fill-opacity="1"><g transform="translate(20.129561, 20.404795)"><g><path d="M 0.890625 -1.375 L 0.890625 0 L 0.453125 0 L 0.453125 -3.296875 L 1.375 -3.296875 C 1.582031 -3.296875 1.765625 -3.273438 1.921875 -3.234375 C 2.078125 -3.191406 2.203125 -3.128906 2.296875 -3.046875 C 2.398438 -2.972656 2.472656 -2.878906 2.515625 -2.765625 C 2.566406 -2.648438 2.59375 -2.523438 2.59375 -2.390625 C 2.59375 -2.273438 2.570312 -2.164062 2.53125 -2.0625 C 2.5 -1.957031 2.445312 -1.863281 2.375 -1.78125 C 2.300781 -1.707031 2.210938 -1.640625 2.109375 -1.578125 C 2.015625 -1.523438 1.90625 -1.484375 1.78125 -1.453125 C 1.832031 -1.421875 1.878906 -1.375 1.921875 -1.3125 L 2.890625 0 L 2.484375 0 C 2.410156 0 2.351562 -0.03125 2.3125 -0.09375 L 1.453125 -1.28125 C 1.429688 -1.3125 1.40625 -1.332031 1.375 -1.34375 C 1.34375 -1.363281 1.296875 -1.375 1.234375 -1.375 Z M 0.890625 -1.703125 L 1.359375 -1.703125 C 1.492188 -1.703125 1.609375 -1.71875 1.703125 -1.75 C 1.804688 -1.78125 1.890625 -1.820312 1.953125 -1.875 C 2.015625 -1.9375 2.0625 -2.003906 2.09375 -2.078125 C 2.132812 -2.160156 2.15625 -2.253906 2.15625 -2.359375 C 2.15625 -2.554688 2.085938 -2.703125 1.953125 -2.796875 C 1.828125 -2.898438 1.632812 -2.953125 1.375 -2.953125 L 0.890625 -2.953125 Z M 0.890625 -1.703125 "/></g></g></g><g fill="#666666" fill-opacity="1"><g transform="translate(24.617772, 20.404795)"><g><path d="M 2.03125 -1.1875 C 2.050781 -1.15625 2.066406 -1.117188 2.078125 -1.078125 C 2.097656 -1.035156 2.113281 -0.992188 2.125 -0.953125 C 2.144531 -0.992188 2.160156 -1.035156 2.171875 -1.078125 C 2.191406 -1.117188 2.210938 -1.160156 2.234375 -1.203125 L 3.359375 -3.234375 C 3.378906 -3.265625 3.398438 -3.28125 3.421875 -3.28125 C 3.441406 -3.289062 3.472656 -3.296875 3.515625 -3.296875 L 3.84375 -3.296875 L 3.84375 0 L 3.453125 0 L 3.453125 -2.421875 C 3.453125 -2.453125 3.453125 -2.488281 3.453125 -2.53125 C 3.453125 -2.570312 3.453125 -2.609375 3.453125 -2.640625 L 2.328125 -0.578125 C 2.285156 -0.503906 2.226562 -0.46875 2.15625 -0.46875 L 2.09375 -0.46875 C 2.03125 -0.46875 1.976562 -0.503906 1.9375 -0.578125 L 0.78125 -2.65625 C 0.78125 -2.613281 0.78125 -2.570312 0.78125 -2.53125 C 0.789062 -2.488281 0.796875 -2.453125 0.796875 -2.421875 L 0.796875 0 L 0.40625 0 L 0.40625 -3.296875 L 0.734375 -3.296875 C 0.773438 -3.296875 0.804688 -3.289062 0.828125 -3.28125 C 0.847656 -3.28125 0.867188 -3.265625 0.890625 -3.234375 Z M 2.03125 -1.1875 "/></g></g></g><g fill="#666666" fill-opacity="1"><g transform="translate(30.377801, 20.404795)"><g><path d="M 3.125 0 L 2.765625 0 C 2.734375 0 2.703125 -0.0078125 2.671875 -0.03125 C 2.648438 -0.0507812 2.632812 -0.078125 2.625 -0.109375 L 2.3125 -0.90625 L 0.828125 -0.90625 L 0.515625 -0.109375 C 0.503906 -0.078125 0.484375 -0.0507812 0.453125 -0.03125 C 0.429688 -0.0078125 0.40625 0 0.375 0 L 0.015625 0 L 1.34375 -3.296875 L 1.796875 -3.296875 Z M 0.953125 -1.21875 L 2.1875 -1.21875 L 1.671875 -2.5625 C 1.640625 -2.644531 1.601562 -2.75 1.5625 -2.875 C 1.550781 -2.8125 1.535156 -2.753906 1.515625 -2.703125 C 1.503906 -2.648438 1.488281 -2.601562 1.46875 -2.5625 Z M 0.953125 -1.21875 "/></g></g></g><g fill="#666666" fill-opacity="1"><g transform="translate(35.031902, 20.404795)"><g><path d="M 2.65625 -3.296875 L 2.65625 -2.921875 L 1.578125 -2.921875 L 1.578125 0 L 1.140625 0 L 1.140625 -2.921875 L 0.0625 -2.921875 L 0.0625 -3.296875 Z M 2.65625 -3.296875 "/></g></g></g><g fill="#666666" fill-opacity="1"><g transform="translate(39.271277, 20.404795)"><g><path d="M 0.9375 0 L 0.484375 0 L 0.484375 -3.296875 L 0.9375 -3.296875 Z M 0.9375 0 "/></g></g></g><g fill="#666666" fill-opacity="1"><g transform="translate(42.206577, 20.404795)"><g><path d="M 3.46875 -1.65625 C 3.46875 -1.40625 3.425781 -1.175781 3.34375 -0.96875 C 3.269531 -0.757812 3.160156 -0.582031 3.015625 -0.4375 C 2.878906 -0.289062 2.707031 -0.175781 2.5 -0.09375 C 2.300781 -0.0078125 2.082031 0.03125 1.84375 0.03125 C 1.59375 0.03125 1.367188 -0.0078125 1.171875 -0.09375 C 0.972656 -0.175781 0.800781 -0.289062 0.65625 -0.4375 C 0.519531 -0.582031 0.410156 -0.757812 0.328125 -0.96875 C 0.253906 -1.175781 0.21875 -1.40625 0.21875 -1.65625 C 0.21875 -1.894531 0.253906 -2.117188 0.328125 -2.328125 C 0.410156 -2.535156 0.519531 -2.710938 0.65625 -2.859375 C 0.800781 -3.015625 0.972656 -3.132812 1.171875 -3.21875 C 1.367188 -3.300781 1.59375 -3.34375 1.84375 -3.34375 C 2.082031 -3.34375 2.300781 -3.300781 2.5 -3.21875 C 2.707031 -3.132812 2.878906 -3.015625 3.015625 -2.859375 C 3.160156 -2.710938 3.269531 -2.535156 3.34375 -2.328125 C 3.425781 -2.117188 3.46875 -1.894531 3.46875 -1.65625 Z M 3.015625 -1.65625 C 3.015625 -1.851562 2.984375 -2.03125 2.921875 -2.1875 C 2.867188 -2.351562 2.789062 -2.488281 2.6875 -2.59375 C 2.59375 -2.707031 2.472656 -2.796875 2.328125 -2.859375 C 2.179688 -2.921875 2.019531 -2.953125 1.84375 -2.953125 C 1.664062 -2.953125 1.503906 -2.921875 1.359375 -2.859375 C 1.210938 -2.796875 1.085938 -2.707031 0.984375 -2.59375 C 0.878906 -2.488281 0.800781 -2.351562 0.75 -2.1875 C 0.695312 -2.03125 0.671875 -1.851562 0.671875 -1.65625 C 0.671875 -1.445312 0.695312 -1.257812 0.75 -1.09375 C 0.800781 -0.9375 0.878906 -0.800781 0.984375 -0.6875 C 1.085938 -0.582031 1.210938 -0.5 1.359375 -0.4375 C 1.503906 -0.382812 1.664062 -0.359375 1.84375 -0.359375 C 2.019531 -0.359375 2.179688 -0.382812 2.328125 -0.4375 C 2.472656 -0.5 2.59375 -0.582031 2.6875 -0.6875 C 2.789062 -0.800781 2.867188 -0.9375 2.921875 -1.09375 C 2.984375 -1.257812 3.015625 -1.445312 3.015625 -1.65625 Z M 3.015625 -1.65625 "/></g></g></g><g fill="#666666" fill-opacity="1"><g transform="translate(47.404423, 20.404795)"><g><path d="M 0.625 -3.296875 C 0.664062 -3.296875 0.695312 -3.289062 0.71875 -3.28125 C 0.738281 -3.269531 0.757812 -3.253906 0.78125 -3.234375 L 2.703125 -0.734375 C 2.691406 -0.773438 2.6875 -0.8125 2.6875 -0.84375 C 2.6875 -0.882812 2.6875 -0.925781 2.6875 -0.96875 L 2.6875 -3.296875 L 3.078125 -3.296875 L 3.078125 0 L 2.859375 0 C 2.816406 0 2.785156 -0.00390625 2.765625 -0.015625 C 2.742188 -0.0234375 2.71875 -0.046875 2.6875 -0.078125 L 0.78125 -2.5625 C 0.78125 -2.53125 0.78125 -2.492188 0.78125 -2.453125 C 0.789062 -2.421875 0.796875 -2.390625 0.796875 -2.359375 L 0.796875 0 L 0.40625 0 L 0.40625 -3.296875 Z M 0.625 -3.296875 "/></g></g></g><g fill="#666666" fill-opacity="1"><g transform="translate(52.408733, 20.404795)"><g/></g></g><g fill="#666666" fill-opacity="1"><g transform="translate(54.818717, 20.404795)"><g><path d="M 2.65625 -3.296875 L 2.65625 -2.921875 L 1.578125 -2.921875 L 1.578125 0 L 1.140625 0 L 1.140625 -2.921875 L 0.0625 -2.921875 L 0.0625 -3.296875 Z M 2.65625 -3.296875 "/></g></g></g><g fill="#666666" fill-opacity="1"><g transform="translate(59.058092, 20.404795)"><g><path d="M 2.4375 -3.296875 L 2.4375 -2.9375 L 0.84375 -2.9375 L 0.84375 -1.84375 L 2.140625 -1.84375 L 2.140625 -1.484375 L 0.84375 -1.484375 L 0.84375 -0.359375 L 2.4375 -0.359375 L 2.4375 0 L 0.40625 0 L 0.40625 -3.296875 Z M 2.4375 -3.296875 "/></g></g></g><g fill="#666666" fill-opacity="1"><g transform="translate(63.255994, 20.404795)"><g><path d="M 2.734375 -0.6875 C 2.753906 -0.6875 2.773438 -0.675781 2.796875 -0.65625 L 2.96875 -0.46875 C 2.832031 -0.300781 2.664062 -0.175781 2.46875 -0.09375 C 2.28125 -0.0078125 2.050781 0.03125 1.78125 0.03125 C 1.539062 0.03125 1.320312 -0.00390625 1.125 -0.078125 C 0.9375 -0.160156 0.773438 -0.273438 0.640625 -0.421875 C 0.503906 -0.578125 0.394531 -0.757812 0.3125 -0.96875 C 0.238281 -1.175781 0.203125 -1.40625 0.203125 -1.65625 C 0.203125 -1.90625 0.242188 -2.128906 0.328125 -2.328125 C 0.410156 -2.535156 0.523438 -2.710938 0.671875 -2.859375 C 0.816406 -3.015625 0.988281 -3.132812 1.1875 -3.21875 C 1.394531 -3.300781 1.617188 -3.34375 1.859375 -3.34375 C 2.109375 -3.34375 2.320312 -3.300781 2.5 -3.21875 C 2.675781 -3.144531 2.832031 -3.046875 2.96875 -2.921875 L 2.8125 -2.71875 C 2.800781 -2.695312 2.789062 -2.679688 2.78125 -2.671875 C 2.769531 -2.660156 2.75 -2.65625 2.71875 -2.65625 C 2.695312 -2.65625 2.675781 -2.660156 2.65625 -2.671875 C 2.632812 -2.691406 2.609375 -2.710938 2.578125 -2.734375 C 2.546875 -2.753906 2.507812 -2.773438 2.46875 -2.796875 C 2.425781 -2.828125 2.375 -2.851562 2.3125 -2.875 C 2.257812 -2.894531 2.195312 -2.910156 2.125 -2.921875 C 2.050781 -2.941406 1.960938 -2.953125 1.859375 -2.953125 C 1.679688 -2.953125 1.519531 -2.921875 1.375 -2.859375 C 1.226562 -2.796875 1.101562 -2.707031 1 -2.59375 C 0.894531 -2.488281 0.8125 -2.351562 0.75 -2.1875 C 0.6875 -2.03125 0.65625 -1.851562 0.65625 -1.65625 C 0.65625 -1.445312 0.6875 -1.257812 0.75 -1.09375 C 0.8125 -0.9375 0.890625 -0.800781 0.984375 -0.6875 C 1.085938 -0.570312 1.207031 -0.484375 1.34375 -0.421875 C 1.488281 -0.367188 1.644531 -0.34375 1.8125 -0.34375 C 1.90625 -0.34375 1.988281 -0.347656 2.0625 -0.359375 C 2.144531 -0.367188 2.21875 -0.382812 2.28125 -0.40625 C 2.351562 -0.4375 2.414062 -0.46875 2.46875 -0.5 C 2.53125 -0.539062 2.59375 -0.585938 2.65625 -0.640625 C 2.675781 -0.671875 2.703125 -0.6875 2.734375 -0.6875 Z M 2.734375 -0.6875 "/></g></g></g><g fill="#666666" fill-opacity="1"><g transform="translate(67.933135, 20.404795)"><g><path d="M 3.078125 0 L 2.625 0 L 2.625 -1.5 L 0.84375 -1.5 L 0.84375 0 L 0.40625 0 L 0.40625 -3.296875 L 0.84375 -3.296875 L 0.84375 -1.828125 L 2.625 -1.828125 L 2.625 -3.296875 L 3.078125 -3.296875 Z M 3.078125 0 "/></g></g></g><g fill="#666666" fill-opacity="1"><g transform="translate(72.937445, 20.404795)"><g><path d="M 0.625 -3.296875 C 0.664062 -3.296875 0.695312 -3.289062 0.71875 -3.28125 C 0.738281 -3.269531 0.757812 -3.253906 0.78125 -3.234375 L 2.703125 -0.734375 C 2.691406 -0.773438 2.6875 -0.8125 2.6875 -0.84375 C 2.6875 -0.882812 2.6875 -0.925781 2.6875 -0.96875 L 2.6875 -3.296875 L 3.078125 -3.296875 L 3.078125 0 L 2.859375 0 C 2.816406 0 2.785156 -0.00390625 2.765625 -0.015625 C 2.742188 -0.0234375 2.71875 -0.046875 2.6875 -0.078125 L 0.78125 -2.5625 C 0.78125 -2.53125 0.78125 -2.492188 0.78125 -2.453125 C 0.789062 -2.421875 0.796875 -2.390625 0.796875 -2.359375 L 0.796875 0 L 0.40625 0 L 0.40625 -3.296875 Z M 0.625 -3.296875 "/></g></g></g><g fill="#666666" fill-opacity="1"><g transform="translate(77.941755, 20.404795)"><g><path d="M 3.46875 -1.65625 C 3.46875 -1.40625 3.425781 -1.175781 3.34375 -0.96875 C 3.269531 -0.757812 3.160156 -0.582031 3.015625 -0.4375 C 2.878906 -0.289062 2.707031 -0.175781 2.5 -0.09375 C 2.300781 -0.0078125 2.082031 0.03125 1.84375 0.03125 C 1.59375 0.03125 1.367188 -0.0078125 1.171875 -0.09375 C 0.972656 -0.175781 0.800781 -0.289062 0.65625 -0.4375 C 0.519531 -0.582031 0.410156 -0.757812 0.328125 -0.96875 C 0.253906 -1.175781 0.21875 -1.40625 0.21875 -1.65625 C 0.21875 -1.894531 0.253906 -2.117188 0.328125 -2.328125 C 0.410156 -2.535156 0.519531 -2.710938 0.65625 -2.859375 C 0.800781 -3.015625 0.972656 -3.132812 1.171875 -3.21875 C 1.367188 -3.300781 1.59375 -3.34375 1.84375 -3.34375 C 2.082031 -3.34375 2.300781 -3.300781 2.5 -3.21875 C 2.707031 -3.132812 2.878906 -3.015625 3.015625 -2.859375 C 3.160156 -2.710938 3.269531 -2.535156 3.34375 -2.328125 C 3.425781 -2.117188 3.46875 -1.894531 3.46875 -1.65625 Z M 3.015625 -1.65625 C 3.015625 -1.851562 2.984375 -2.03125 2.921875 -2.1875 C 2.867188 -2.351562 2.789062 -2.488281 2.6875 -2.59375 C 2.59375 -2.707031 2.472656 -2.796875 2.328125 -2.859375 C 2.179688 -2.921875 2.019531 -2.953125 1.84375 -2.953125 C 1.664062 -2.953125 1.503906 -2.921875 1.359375 -2.859375 C 1.210938 -2.796875 1.085938 -2.707031 0.984375 -2.59375 C 0.878906 -2.488281 0.800781 -2.351562 0.75 -2.1875 C 0.695312 -2.03125 0.671875 -1.851562 0.671875 -1.65625 C 0.671875 -1.445312 0.695312 -1.257812 0.75 -1.09375 C 0.800781 -0.9375 0.878906 -0.800781 0.984375 -0.6875 C 1.085938 -0.582031 1.210938 -0.5 1.359375 -0.4375 C 1.503906 -0.382812 1.664062 -0.359375 1.84375 -0.359375 C 2.019531 -0.359375 2.179688 -0.382812 2.328125 -0.4375 C 2.472656 -0.5 2.59375 -0.582031 2.6875 -0.6875 C 2.789062 -0.800781 2.867188 -0.9375 2.921875 -1.09375 C 2.984375 -1.257812 3.015625 -1.445312 3.015625 -1.65625 Z M 3.015625 -1.65625 "/></g></g></g><g fill="#666666" fill-opacity="1"><g transform="translate(83.139601, 20.404795)"><g><path d="M 0.84375 -0.375 L 2.28125 -0.375 L 2.28125 0 L 0.40625 0 L 0.40625 -3.296875 L 0.84375 -3.296875 Z M 0.84375 -0.375 "/></g></g></g><g fill="#666666" fill-opacity="1"><g transform="translate(87.028767, 20.404795)"><g><path d="M 3.46875 -1.65625 C 3.46875 -1.40625 3.425781 -1.175781 3.34375 -0.96875 C 3.269531 -0.757812 3.160156 -0.582031 3.015625 -0.4375 C 2.878906 -0.289062 2.707031 -0.175781 2.5 -0.09375 C 2.300781 -0.0078125 2.082031 0.03125 1.84375 0.03125 C 1.59375 0.03125 1.367188 -0.0078125 1.171875 -0.09375 C 0.972656 -0.175781 0.800781 -0.289062 0.65625 -0.4375 C 0.519531 -0.582031 0.410156 -0.757812 0.328125 -0.96875 C 0.253906 -1.175781 0.21875 -1.40625 0.21875 -1.65625 C 0.21875 -1.894531 0.253906 -2.117188 0.328125 -2.328125 C 0.410156 -2.535156 0.519531 -2.710938 0.65625 -2.859375 C 0.800781 -3.015625 0.972656 -3.132812 1.171875 -3.21875 C 1.367188 -3.300781 1.59375 -3.34375 1.84375 -3.34375 C 2.082031 -3.34375 2.300781 -3.300781 2.5 -3.21875 C 2.707031 -3.132812 2.878906 -3.015625 3.015625 -2.859375 C 3.160156 -2.710938 3.269531 -2.535156 3.34375 -2.328125 C 3.425781 -2.117188 3.46875 -1.894531 3.46875 -1.65625 Z M 3.015625 -1.65625 C 3.015625 -1.851562 2.984375 -2.03125 2.921875 -2.1875 C 2.867188 -2.351562 2.789062 -2.488281 2.6875 -2.59375 C 2.59375 -2.707031 2.472656 -2.796875 2.328125 -2.859375 C 2.179688 -2.921875 2.019531 -2.953125 1.84375 -2.953125 C 1.664062 -2.953125 1.503906 -2.921875 1.359375 -2.859375 C 1.210938 -2.796875 1.085938 -2.707031 0.984375 -2.59375 C 0.878906 -2.488281 0.800781 -2.351562 0.75 -2.1875 C 0.695312 -2.03125 0.671875 -1.851562 0.671875 -1.65625 C 0.671875 -1.445312 0.695312 -1.257812 0.75 -1.09375 C 0.800781 -0.9375 0.878906 -0.800781 0.984375 -0.6875 C 1.085938 -0.582031 1.210938 -0.5 1.359375 -0.4375 C 1.503906 -0.382812 1.664062 -0.359375 1.84375 -0.359375 C 2.019531 -0.359375 2.179688 -0.382812 2.328125 -0.4375 C 2.472656 -0.5 2.59375 -0.582031 2.6875 -0.6875 C 2.789062 -0.800781 2.867188 -0.9375 2.921875 -1.09375 C 2.984375 -1.257812 3.015625 -1.445312 3.015625 -1.65625 Z M 3.015625 -1.65625 "/></g></g></g><g fill="#666666" fill-opacity="1"><g transform="translate(92.226612, 20.404795)"><g><path d="M 1.875 -0.328125 C 1.957031 -0.328125 2.035156 -0.328125 2.109375 -0.328125 C 2.191406 -0.335938 2.265625 -0.351562 2.328125 -0.375 C 2.390625 -0.394531 2.453125 -0.414062 2.515625 -0.4375 C 2.578125 -0.457031 2.632812 -0.484375 2.6875 -0.515625 L 2.6875 -1.25 L 2.1875 -1.25 C 2.15625 -1.25 2.128906 -1.253906 2.109375 -1.265625 C 2.085938 -1.285156 2.078125 -1.304688 2.078125 -1.328125 L 2.078125 -1.59375 L 3.09375 -1.59375 L 3.09375 -0.328125 C 3.007812 -0.265625 2.921875 -0.207031 2.828125 -0.15625 C 2.742188 -0.113281 2.648438 -0.078125 2.546875 -0.046875 C 2.441406 -0.015625 2.332031 0.00390625 2.21875 0.015625 C 2.101562 0.0234375 1.976562 0.03125 1.84375 0.03125 C 1.601562 0.03125 1.378906 -0.00390625 1.171875 -0.078125 C 0.972656 -0.160156 0.800781 -0.273438 0.65625 -0.421875 C 0.519531 -0.578125 0.410156 -0.757812 0.328125 -0.96875 C 0.242188 -1.175781 0.203125 -1.40625 0.203125 -1.65625 C 0.203125 -1.90625 0.238281 -2.132812 0.3125 -2.34375 C 0.394531 -2.550781 0.507812 -2.726562 0.65625 -2.875 C 0.8125 -3.019531 0.992188 -3.132812 1.203125 -3.21875 C 1.410156 -3.300781 1.640625 -3.34375 1.890625 -3.34375 C 2.023438 -3.34375 2.144531 -3.332031 2.25 -3.3125 C 2.363281 -3.289062 2.46875 -3.257812 2.5625 -3.21875 C 2.664062 -3.1875 2.757812 -3.144531 2.84375 -3.09375 C 2.925781 -3.039062 3 -2.984375 3.0625 -2.921875 L 2.9375 -2.71875 C 2.914062 -2.675781 2.882812 -2.65625 2.84375 -2.65625 C 2.8125 -2.65625 2.785156 -2.664062 2.765625 -2.6875 C 2.722656 -2.707031 2.675781 -2.734375 2.625 -2.765625 C 2.582031 -2.796875 2.523438 -2.820312 2.453125 -2.84375 C 2.390625 -2.875 2.3125 -2.898438 2.21875 -2.921875 C 2.125 -2.941406 2.015625 -2.953125 1.890625 -2.953125 C 1.703125 -2.953125 1.53125 -2.921875 1.375 -2.859375 C 1.226562 -2.796875 1.097656 -2.707031 0.984375 -2.59375 C 0.878906 -2.488281 0.796875 -2.351562 0.734375 -2.1875 C 0.679688 -2.03125 0.65625 -1.851562 0.65625 -1.65625 C 0.65625 -1.445312 0.6875 -1.257812 0.75 -1.09375 C 0.8125 -0.925781 0.894531 -0.785156 1 -0.671875 C 1.101562 -0.554688 1.226562 -0.46875 1.375 -0.40625 C 1.53125 -0.351562 1.695312 -0.328125 1.875 -0.328125 Z M 1.875 -0.328125 "/></g></g></g><g fill="#666666" fill-opacity="1"><g transform="translate(97.129543, 20.404795)"><g><path d="M 1.671875 -1.3125 L 1.671875 0 L 1.234375 0 L 1.234375 -1.3125 L 0.015625 -3.296875 L 0.40625 -3.296875 C 0.445312 -3.296875 0.476562 -3.285156 0.5 -3.265625 C 0.53125 -3.253906 0.550781 -3.234375 0.5625 -3.203125 L 1.328125 -1.921875 C 1.347656 -1.859375 1.367188 -1.800781 1.390625 -1.75 C 1.410156 -1.707031 1.429688 -1.664062 1.453125 -1.625 C 1.472656 -1.664062 1.492188 -1.710938 1.515625 -1.765625 C 1.535156 -1.816406 1.554688 -1.867188 1.578125 -1.921875 L 2.34375 -3.203125 C 2.351562 -3.222656 2.367188 -3.242188 2.390625 -3.265625 C 2.421875 -3.285156 2.453125 -3.296875 2.484375 -3.296875 L 2.890625 -3.296875 Z M 1.671875 -1.3125 "/></g></g></g><g fill="#666666" fill-opacity="1"><g transform="translate(101.548631, 20.404795)"><g/></g></g><g fill="#666666" fill-opacity="1"><g transform="translate(103.958615, 20.404795)"><g><path d="M 2.734375 -0.6875 C 2.753906 -0.6875 2.773438 -0.675781 2.796875 -0.65625 L 2.96875 -0.46875 C 2.832031 -0.300781 2.664062 -0.175781 2.46875 -0.09375 C 2.28125 -0.0078125 2.050781 0.03125 1.78125 0.03125 C 1.539062 0.03125 1.320312 -0.00390625 1.125 -0.078125 C 0.9375 -0.160156 0.773438 -0.273438 0.640625 -0.421875 C 0.503906 -0.578125 0.394531 -0.757812 0.3125 -0.96875 C 0.238281 -1.175781 0.203125 -1.40625 0.203125 -1.65625 C 0.203125 -1.90625 0.242188 -2.128906 0.328125 -2.328125 C 0.410156 -2.535156 0.523438 -2.710938 0.671875 -2.859375 C 0.816406 -3.015625 0.988281 -3.132812 1.1875 -3.21875 C 1.394531 -3.300781 1.617188 -3.34375 1.859375 -3.34375 C 2.109375 -3.34375 2.320312 -3.300781 2.5 -3.21875 C 2.675781 -3.144531 2.832031 -3.046875 2.96875 -2.921875 L 2.8125 -2.71875 C 2.800781 -2.695312 2.789062 -2.679688 2.78125 -2.671875 C 2.769531 -2.660156 2.75 -2.65625 2.71875 -2.65625 C 2.695312 -2.65625 2.675781 -2.660156 2.65625 -2.671875 C 2.632812 -2.691406 2.609375 -2.710938 2.578125 -2.734375 C 2.546875 -2.753906 2.507812 -2.773438 2.46875 -2.796875 C 2.425781 -2.828125 2.375 -2.851562 2.3125 -2.875 C 2.257812 -2.894531 2.195312 -2.910156 2.125 -2.921875 C 2.050781 -2.941406 1.960938 -2.953125 1.859375 -2.953125 C 1.679688 -2.953125 1.519531 -2.921875 1.375 -2.859375 C 1.226562 -2.796875 1.101562 -2.707031 1 -2.59375 C 0.894531 -2.488281 0.8125 -2.351562 0.75 -2.1875 C 0.6875 -2.03125 0.65625 -1.851562 0.65625 -1.65625 C 0.65625 -1.445312 0.6875 -1.257812 0.75 -1.09375 C 0.8125 -0.9375 0.890625 -0.800781 0.984375 -0.6875 C 1.085938 -0.570312 1.207031 -0.484375 1.34375 -0.421875 C 1.488281 -0.367188 1.644531 -0.34375 1.8125 -0.34375 C 1.90625 -0.34375 1.988281 -0.347656 2.0625 -0.359375 C 2.144531 -0.367188 2.21875 -0.382812 2.28125 -0.40625 C 2.351562 -0.4375 2.414062 -0.46875 2.46875 -0.5 C 2.53125 -0.539062 2.59375 -0.585938 2.65625 -0.640625 C 2.675781 -0.671875 2.703125 -0.6875 2.734375 -0.6875 Z M 2.734375 -0.6875 "/></g></g></g><g fill="#666666" fill-opacity="1"><g transform="translate(108.635756, 20.404795)"><g><path d="M 3.46875 -1.65625 C 3.46875 -1.40625 3.425781 -1.175781 3.34375 -0.96875 C 3.269531 -0.757812 3.160156 -0.582031 3.015625 -0.4375 C 2.878906 -0.289062 2.707031 -0.175781 2.5 -0.09375 C 2.300781 -0.0078125 2.082031 0.03125 1.84375 0.03125 C 1.59375 0.03125 1.367188 -0.0078125 1.171875 -0.09375 C 0.972656 -0.175781 0.800781 -0.289062 0.65625 -0.4375 C 0.519531 -0.582031 0.410156 -0.757812 0.328125 -0.96875 C 0.253906 -1.175781 0.21875 -1.40625 0.21875 -1.65625 C 0.21875 -1.894531 0.253906 -2.117188 0.328125 -2.328125 C 0.410156 -2.535156 0.519531 -2.710938 0.65625 -2.859375 C 0.800781 -3.015625 0.972656 -3.132812 1.171875 -3.21875 C 1.367188 -3.300781 1.59375 -3.34375 1.84375 -3.34375 C 2.082031 -3.34375 2.300781 -3.300781 2.5 -3.21875 C 2.707031 -3.132812 2.878906 -3.015625 3.015625 -2.859375 C 3.160156 -2.710938 3.269531 -2.535156 3.34375 -2.328125 C 3.425781 -2.117188 3.46875 -1.894531 3.46875 -1.65625 Z M 3.015625 -1.65625 C 3.015625 -1.851562 2.984375 -2.03125 2.921875 -2.1875 C 2.867188 -2.351562 2.789062 -2.488281 2.6875 -2.59375 C 2.59375 -2.707031 2.472656 -2.796875 2.328125 -2.859375 C 2.179688 -2.921875 2.019531 -2.953125 1.84375 -2.953125 C 1.664062 -2.953125 1.503906 -2.921875 1.359375 -2.859375 C 1.210938 -2.796875 1.085938 -2.707031 0.984375 -2.59375 C 0.878906 -2.488281 0.800781 -2.351562 0.75 -2.1875 C 0.695312 -2.03125 0.671875 -1.851562 0.671875 -1.65625 C 0.671875 -1.445312 0.695312 -1.257812 0.75 -1.09375 C 0.800781 -0.9375 0.878906 -0.800781 0.984375 -0.6875 C 1.085938 -0.582031 1.210938 -0.5 1.359375 -0.4375 C 1.503906 -0.382812 1.664062 -0.359375 1.84375 -0.359375 C 2.019531 -0.359375 2.179688 -0.382812 2.328125 -0.4375 C 2.472656 -0.5 2.59375 -0.582031 2.6875 -0.6875 C 2.789062 -0.800781 2.867188 -0.9375 2.921875 -1.09375 C 2.984375 -1.257812 3.015625 -1.445312 3.015625 -1.65625 Z M 3.015625 -1.65625 "/></g></g></g><g fill="#666666" fill-opacity="1"><g transform="translate(113.833595, 20.404795)"><g><path d="M 0.625 -3.296875 C 0.664062 -3.296875 0.695312 -3.289062 0.71875 -3.28125 C 0.738281 -3.269531 0.757812 -3.253906 0.78125 -3.234375 L 2.703125 -0.734375 C 2.691406 -0.773438 2.6875 -0.8125 2.6875 -0.84375 C 2.6875 -0.882812 2.6875 -0.925781 2.6875 -0.96875 L 2.6875 -3.296875 L 3.078125 -3.296875 L 3.078125 0 L 2.859375 0 C 2.816406 0 2.785156 -0.00390625 2.765625 -0.015625 C 2.742188 -0.0234375 2.71875 -0.046875 2.6875 -0.078125 L 0.78125 -2.5625 C 0.78125 -2.53125 0.78125 -2.492188 0.78125 -2.453125 C 0.789062 -2.421875 0.796875 -2.390625 0.796875 -2.359375 L 0.796875 0 L 0.40625 0 L 0.40625 -3.296875 Z M 0.625 -3.296875 "/></g></g></g><g fill="#666666" fill-opacity="1"><g transform="translate(118.837912, 20.404795)"><g><path d="M 2.09375 -2.78125 C 2.082031 -2.757812 2.066406 -2.742188 2.046875 -2.734375 C 2.035156 -2.722656 2.015625 -2.71875 1.984375 -2.71875 C 1.960938 -2.71875 1.929688 -2.726562 1.890625 -2.75 C 1.859375 -2.78125 1.816406 -2.8125 1.765625 -2.84375 C 1.710938 -2.875 1.648438 -2.898438 1.578125 -2.921875 C 1.503906 -2.953125 1.410156 -2.96875 1.296875 -2.96875 C 1.203125 -2.96875 1.113281 -2.953125 1.03125 -2.921875 C 0.957031 -2.898438 0.894531 -2.863281 0.84375 -2.8125 C 0.789062 -2.769531 0.75 -2.71875 0.71875 -2.65625 C 0.695312 -2.59375 0.6875 -2.523438 0.6875 -2.453125 C 0.6875 -2.359375 0.707031 -2.28125 0.75 -2.21875 C 0.800781 -2.164062 0.863281 -2.113281 0.9375 -2.0625 C 1.007812 -2.019531 1.09375 -1.984375 1.1875 -1.953125 C 1.28125 -1.921875 1.375 -1.890625 1.46875 -1.859375 C 1.570312 -1.828125 1.671875 -1.789062 1.765625 -1.75 C 1.867188 -1.707031 1.957031 -1.648438 2.03125 -1.578125 C 2.101562 -1.515625 2.160156 -1.4375 2.203125 -1.34375 C 2.253906 -1.25 2.28125 -1.132812 2.28125 -1 C 2.28125 -0.851562 2.253906 -0.71875 2.203125 -0.59375 C 2.148438 -0.46875 2.078125 -0.359375 1.984375 -0.265625 C 1.890625 -0.171875 1.773438 -0.0976562 1.640625 -0.046875 C 1.503906 0.00390625 1.347656 0.03125 1.171875 0.03125 C 0.953125 0.03125 0.753906 -0.00390625 0.578125 -0.078125 C 0.410156 -0.160156 0.265625 -0.265625 0.140625 -0.390625 L 0.265625 -0.609375 C 0.273438 -0.617188 0.285156 -0.628906 0.296875 -0.640625 C 0.316406 -0.660156 0.335938 -0.671875 0.359375 -0.671875 C 0.398438 -0.671875 0.441406 -0.648438 0.484375 -0.609375 C 0.523438 -0.578125 0.570312 -0.539062 0.625 -0.5 C 0.6875 -0.457031 0.757812 -0.414062 0.84375 -0.375 C 0.9375 -0.34375 1.050781 -0.328125 1.1875 -0.328125 C 1.289062 -0.328125 1.382812 -0.34375 1.46875 -0.375 C 1.550781 -0.40625 1.617188 -0.445312 1.671875 -0.5 C 1.734375 -0.550781 1.78125 -0.613281 1.8125 -0.6875 C 1.84375 -0.757812 1.859375 -0.84375 1.859375 -0.9375 C 1.859375 -1.039062 1.832031 -1.125 1.78125 -1.1875 C 1.738281 -1.25 1.679688 -1.300781 1.609375 -1.34375 C 1.535156 -1.382812 1.453125 -1.421875 1.359375 -1.453125 C 1.265625 -1.484375 1.164062 -1.515625 1.0625 -1.546875 C 0.96875 -1.578125 0.875 -1.613281 0.78125 -1.65625 C 0.6875 -1.695312 0.597656 -1.75 0.515625 -1.8125 C 0.441406 -1.882812 0.382812 -1.96875 0.34375 -2.0625 C 0.300781 -2.164062 0.28125 -2.289062 0.28125 -2.4375 C 0.28125 -2.550781 0.300781 -2.660156 0.34375 -2.765625 C 0.382812 -2.878906 0.445312 -2.976562 0.53125 -3.0625 C 0.625 -3.144531 0.734375 -3.210938 0.859375 -3.265625 C 0.984375 -3.316406 1.128906 -3.34375 1.296875 -3.34375 C 1.484375 -3.34375 1.648438 -3.3125 1.796875 -3.25 C 1.953125 -3.195312 2.085938 -3.113281 2.203125 -3 Z M 2.09375 -2.78125 "/></g></g></g><g fill="#666666" fill-opacity="1"><g transform="translate(122.800806, 20.404795)"><g><path d="M 1.6875 -0.359375 C 1.820312 -0.359375 1.941406 -0.378906 2.046875 -0.421875 C 2.160156 -0.472656 2.253906 -0.535156 2.328125 -0.609375 C 2.398438 -0.691406 2.453125 -0.789062 2.484375 -0.90625 C 2.523438 -1.03125 2.546875 -1.160156 2.546875 -1.296875 L 2.546875 -3.296875 L 3 -3.296875 L 3 -1.296875 C 3 -1.109375 2.96875 -0.929688 2.90625 -0.765625 C 2.84375 -0.597656 2.753906 -0.453125 2.640625 -0.328125 C 2.535156 -0.210938 2.398438 -0.117188 2.234375 -0.046875 C 2.066406 0.015625 1.882812 0.046875 1.6875 0.046875 C 1.476562 0.046875 1.289062 0.015625 1.125 -0.046875 C 0.96875 -0.117188 0.832031 -0.210938 0.71875 -0.328125 C 0.601562 -0.453125 0.515625 -0.597656 0.453125 -0.765625 C 0.398438 -0.929688 0.375 -1.109375 0.375 -1.296875 L 0.375 -3.296875 L 0.8125 -3.296875 L 0.8125 -1.296875 C 0.8125 -1.160156 0.832031 -1.035156 0.875 -0.921875 C 0.914062 -0.804688 0.972656 -0.707031 1.046875 -0.625 C 1.117188 -0.539062 1.207031 -0.472656 1.3125 -0.421875 C 1.425781 -0.378906 1.550781 -0.359375 1.6875 -0.359375 Z M 1.6875 -0.359375 "/></g></g></g><g fill="#666666" fill-opacity="1"><g transform="translate(127.685298, 20.404795)"><g><path d="M 0.84375 -0.375 L 2.28125 -0.375 L 2.28125 0 L 0.40625 0 L 0.40625 -3.296875 L 0.84375 -3.296875 Z M 0.84375 -0.375 "/></g></g></g><g fill="#666666" fill-opacity="1"><g transform="translate(131.574469, 20.404795)"><g><path d="M 2.65625 -3.296875 L 2.65625 -2.921875 L 1.578125 -2.921875 L 1.578125 0 L 1.140625 0 L 1.140625 -2.921875 L 0.0625 -2.921875 L 0.0625 -3.296875 Z M 2.65625 -3.296875 "/></g></g></g><g fill="#666666" fill-opacity="1"><g transform="translate(135.813844, 20.404795)"><g><path d="M 0.9375 0 L 0.484375 0 L 0.484375 -3.296875 L 0.9375 -3.296875 Z M 0.9375 0 "/></g></g></g><g fill="#666666" fill-opacity="1"><g transform="translate(138.749145, 20.404795)"><g><path d="M 0.625 -3.296875 C 0.664062 -3.296875 0.695312 -3.289062 0.71875 -3.28125 C 0.738281 -3.269531 0.757812 -3.253906 0.78125 -3.234375 L 2.703125 -0.734375 C 2.691406 -0.773438 2.6875 -0.8125 2.6875 -0.84375 C 2.6875 -0.882812 2.6875 -0.925781 2.6875 -0.96875 L 2.6875 -3.296875 L 3.078125 -3.296875 L 3.078125 0 L 2.859375 0 C 2.816406 0 2.785156 -0.00390625 2.765625 -0.015625 C 2.742188 -0.0234375 2.71875 -0.046875 2.6875 -0.078125 L 0.78125 -2.5625 C 0.78125 -2.53125 0.78125 -2.492188 0.78125 -2.453125 C 0.789062 -2.421875 0.796875 -2.390625 0.796875 -2.359375 L 0.796875 0 L 0.40625 0 L 0.40625 -3.296875 Z M 0.625 -3.296875 "/></g></g></g><g fill="#666666" fill-opacity="1"><g transform="translate(143.753461, 20.404795)"><g><path d="M 1.875 -0.328125 C 1.957031 -0.328125 2.035156 -0.328125 2.109375 -0.328125 C 2.191406 -0.335938 2.265625 -0.351562 2.328125 -0.375 C 2.390625 -0.394531 2.453125 -0.414062 2.515625 -0.4375 C 2.578125 -0.457031 2.632812 -0.484375 2.6875 -0.515625 L 2.6875 -1.25 L 2.1875 -1.25 C 2.15625 -1.25 2.128906 -1.253906 2.109375 -1.265625 C 2.085938 -1.285156 2.078125 -1.304688 2.078125 -1.328125 L 2.078125 -1.59375 L 3.09375 -1.59375 L 3.09375 -0.328125 C 3.007812 -0.265625 2.921875 -0.207031 2.828125 -0.15625 C 2.742188 -0.113281 2.648438 -0.078125 2.546875 -0.046875 C 2.441406 -0.015625 2.332031 0.00390625 2.21875 0.015625 C 2.101562 0.0234375 1.976562 0.03125 1.84375 0.03125 C 1.601562 0.03125 1.378906 -0.00390625 1.171875 -0.078125 C 0.972656 -0.160156 0.800781 -0.273438 0.65625 -0.421875 C 0.519531 -0.578125 0.410156 -0.757812 0.328125 -0.96875 C 0.242188 -1.175781 0.203125 -1.40625 0.203125 -1.65625 C 0.203125 -1.90625 0.238281 -2.132812 0.3125 -2.34375 C 0.394531 -2.550781 0.507812 -2.726562 0.65625 -2.875 C 0.8125 -3.019531 0.992188 -3.132812 1.203125 -3.21875 C 1.410156 -3.300781 1.640625 -3.34375 1.890625 -3.34375 C 2.023438 -3.34375 2.144531 -3.332031 2.25 -3.3125 C 2.363281 -3.289062 2.46875 -3.257812 2.5625 -3.21875 C 2.664062 -3.1875 2.757812 -3.144531 2.84375 -3.09375 C 2.925781 -3.039062 3 -2.984375 3.0625 -2.921875 L 2.9375 -2.71875 C 2.914062 -2.675781 2.882812 -2.65625 2.84375 -2.65625 C 2.8125 -2.65625 2.785156 -2.664062 2.765625 -2.6875 C 2.722656 -2.707031 2.675781 -2.734375 2.625 -2.765625 C 2.582031 -2.796875 2.523438 -2.820312 2.453125 -2.84375 C 2.390625 -2.875 2.3125 -2.898438 2.21875 -2.921875 C 2.125 -2.941406 2.015625 -2.953125 1.890625 -2.953125 C 1.703125 -2.953125 1.53125 -2.921875 1.375 -2.859375 C 1.226562 -2.796875 1.097656 -2.707031 0.984375 -2.59375 C 0.878906 -2.488281 0.796875 -2.351562 0.734375 -2.1875 C 0.679688 -2.03125 0.65625 -1.851562 0.65625 -1.65625 C 0.65625 -1.445312 0.6875 -1.257812 0.75 -1.09375 C 0.8125 -0.925781 0.894531 -0.785156 1 -0.671875 C 1.101562 -0.554688 1.226562 -0.46875 1.375 -0.40625 C 1.53125 -0.351562 1.695312 -0.328125 1.875 -0.328125 Z M 1.875 -0.328125 "/></g></g></g></g></g></svg>